#!OML:ASF E:\Style6\Style6.ASF
:FULLY-SPECIFIED
:DEGREES
3360
root 0.881988 17.4912 -1.30865 5.3392 1.74082 -0.853721
lowerback 9.40851 0.439402 4.87372
upperback 16.921 0.241039 4.64329
thorax 13.3493 0.326061 2.44793
lowerneck 9.54824 10.2061 3.8174
upperneck 18.652 11.7298 15.1372
head 3.3515 6.39774 3.98119
rclavicle -3.97569e-014 -6.20208e-014
rhumerus 39.6193 4.06456 -67.5711
rradius 46.8629
rwrist 37.3901
rhand -3.99399 4.71587
rfingers 7.12502
rthumb 21.7597 -24.081
lclavicle -3.97569e-014 -6.20208e-014
lhumerus 91.1332 -22.0348 18.8649
lradius 30.3997
lwrist -10.2742
lhand 2.44878 28.303
lfingers 7.12502
lthumb 27.9337 56.2451
rfemur -29.3971 -6.25967 18.4571
rtibia 37.8974
rfoot -8.61362 -10.1766
rtoes -5.04938
lfemur -29.7095 4.49646 -19.8743
ltibia 40.8213
lfoot -10.7477 1.35296
ltoes -15.9946
3361
root 0.883698 17.4949 -1.30623 5.34774 1.75463 -0.790116
lowerback 9.33649 0.364651 4.75358
upperback 16.8968 0.132941 4.66503
thorax 13.3598 0.255492 2.53615
lowerneck 10.9474 10.0779 4.25301
upperneck 17.2626 11.9766 13.9008
head 3.18406 6.363 3.82391
rclavicle -4.77083e-015 -9.54166e-015
rhumerus 39.6558 4.36175 -67.5201
rradius 46.8591
rwrist 37.3926
rhand -3.98378 4.78624
rfingers 7.12502
rthumb 21.7695 -24.0095
lclavicle -4.77083e-015 -9.54166e-015
lhumerus 90.8377 -22.0879 19.0276
lradius 30.3546
lwrist -10.525
lhand 2.30809 28.3299
lfingers 7.12502
lthumb 27.7992 56.2939
rfemur -29.3727 -6.25758 18.3794
rtibia 37.8641
rfoot -8.59336 -10.2198
rtoes -5.40808
lfemur -29.6484 4.45121 -19.9408
ltibia 40.7231
lfoot -10.7218 1.3199
ltoes -15.5143
3362
root 0.88585 17.4974 -1.3043 5.32736 1.75147 -0.759435
lowerback 9.31768 0.28813 4.65855
upperback 16.8711 0.0258754 4.69821
thorax 13.3381 0.187367 2.62195
lowerneck 11.2657 10.0297 4.02058
upperneck 17.2814 11.9235 13.7923
head 3.12945 6.31222 3.80499
rclavicle -2.06736e-014 -2.38542e-014
rhumerus 39.6903 4.8101 -67.2187
rradius 46.8272
rwrist 37.2144
rhand -4.18846 4.77553
rfingers 7.12502
rthumb 21.573 -24.0429
lclavicle -2.06736e-014 -2.38542e-014
lhumerus 90.5139 -22.1672 19.2269
lradius 30.298
lwrist -10.7217
lhand 2.31465 28.1895
lfingers 7.12502
lthumb 27.8055 56.1524
rfemur -29.3192 -6.22719 18.3247
rtibia 37.8324
rfoot -8.62685 -10.2224
rtoes -5.04009
lfemur -29.5602 4.42154 -19.9767
ltibia 40.6322
lfoot -10.6936 1.34169
ltoes -15.4335
3363
root 0.887169 17.4988 -1.30317 5.36275 1.74528 -0.68951
lowerback 9.26374 0.214837 4.50122
upperback 16.8215 -0.0784171 4.72763
thorax 13.3062 0.113121 2.73724
lowerneck 8.95424 10.1649 2.37157
upperneck 20.8223 11.1743 16.2082
head 3.95966 6.20496 4.6601
rclavicle 0 9.54166e-015
rhumerus 39.691 5.14009 -67.1232
rradius 46.7968
rwrist 37.2077
rhand -4.42049 4.65193
rfingers 7.12502
rthumb 21.3501 -24.1919
lclavicle 0 9.54166e-015
lhumerus 90.1549 -22.2821 19.5119
lradius 30.2272
lwrist -10.9188
lhand 2.41579 28.0359
lfingers 7.12502
lthumb 27.9022 55.9832
rfemur -29.3307 -6.20412 18.2372
rtibia 37.796
rfoot -8.63769 -10.2142
rtoes -4.75113
lfemur -29.5477 4.39076 -20.0582
ltibia 40.5566
lfoot -10.6755 1.36534
ltoes -15.315
3364
root 0.888492 17.501 -1.30214 5.39845 1.766 -0.688176
lowerback 9.21337 0.13705 4.44048
upperback 16.768 -0.18841 4.77316
thorax 13.2706 0.0468791 2.81686
lowerneck 11.6931 9.89507 3.41234
upperneck 17.7009 11.6841 13.6927
head 3.18458 6.16455 3.87614
rclavicle 2.54444e-014 3.81667e-014
rhumerus 39.6741 5.04481 -67.7029
rradius 46.6857
rwrist 37.8196
rhand -4.28466 5.0481
rfingers 7.12502
rthumb 21.4806 -23.7809
lclavicle 2.54444e-014 3.81667e-014
lhumerus 89.9271 -22.3519 19.4682
lradius 30.2087
lwrist -11.056
lhand 2.44378 27.9981
lfingers 7.12502
lthumb 27.9289 55.941
rfemur -29.3408 -6.14849 18.2236
rtibia 37.7545
rfoot -8.60317 -10.3175
rtoes -4.78934
lfemur -29.552 4.33088 -20.0598
ltibia 40.4983
lfoot -10.6312 1.3879
ltoes -15.093
3365
root 0.890005 17.5044 -1.30077 5.39122 1.80529 -0.721895
lowerback 9.17358 0.050587 4.40823
upperback 16.7407 -0.311915 4.83551
thorax 13.264 -0.023937 2.9007
lowerneck 10.4737 9.8996 2.40208
upperneck 19.7664 11.1857 14.8654
head 3.49508 6.0596 4.12391
rclavicle 1.90833e-014 1.43125e-014
rhumerus 39.6996 5.07284 -68.0534
rradius 46.613
rwrist 38.2057
rhand -4.09686 5.4662
rfingers 7.12502
rthumb 21.6609 -23.3421
lclavicle 1.90833e-014 1.43125e-014
lhumerus 89.7598 -22.4162 19.3451
lradius 30.1197
lwrist -11.3179
lhand 2.28757 27.9041
lfingers 7.12502
lthumb 27.7796 55.8712
rfemur -29.2903 -6.13651 18.2536
rtibia 37.7007
rfoot -8.55481 -10.3988
rtoes -5.1358
lfemur -29.5118 4.25595 -20.0174
ltibia 40.4545
lfoot -10.6243 1.42805
ltoes -15.2022
3366
root 0.89045 17.5069 -1.2986 5.41406 1.82533 -0.689854
lowerback 9.12879 -0.0170137 4.28936
upperback 16.6868 -0.409036 4.89126
thorax 13.225 -0.0919233 3.02402
lowerneck 10.7133 9.77448 2.28391
upperneck 19.9937 11.0398 14.4736
head 3.55705 5.97126 4.02688
rclavicle 1.27222e-014 0
rhumerus 39.7077 5.38141 -67.9312
rradius 46.5863
rwrist 38.1402
rhand -4.00224 5.27718
rfingers 7.12502
rthumb 21.7518 -23.5206
lclavicle 1.27222e-014 0
lhumerus 89.5684 -22.547 19.3929
lradius 30.007
lwrist -11.5552
lhand 2.13691 27.7418
lfingers 7.12502
lthumb 27.6355 55.7321
rfemur -29.2625 -6.11857 18.2119
rtibia 37.6351
rfoot -8.59097 -10.4246
rtoes -4.93095
lfemur -29.5015 4.20514 -20.0509
ltibia 40.4151
lfoot -10.6336 1.48258
ltoes -15.4522
